<?xml version="1.0" encoding="utf-8"?>
<!-- Generator: Adobe Illustrator 16.0.0, SVG Export Plug-In . SVG Version: 6.00 Build 0)  -->
<!DOCTYPE svg PUBLIC "-//W3C//DTD SVG 1.1//EN" "http://www.w3.org/Graphics/SVG/1.1/DTD/svg11.dtd">
<svg version="1.1" id="Capa_1" xmlns="http://www.w3.org/2000/svg" xmlns:xlink="http://www.w3.org/1999/xlink" x="0px" y="0px"
	 width="720px" height="1240px" viewBox="0 0 720 1240" enable-background="new 0 0 720 1240" xml:space="preserve">
<g id="TABLETS" display="none">
</g>
<path fill="#FFFFFF" d="M548.723,472.511L548.723,472.511c-10.573-4.229-19.031-8.458-20.088-19.03c0-2.115,0-4.229,0-7.401
	s0-7.4-1.058-10.572c-2.114-4.229-5.286-6.344-9.516-7.401c-2.114-1.057-4.229,0-6.344,0c-3.172,0-5.286,1.058-7.4-3.172
	c-3.172-5.286,0-14.802,2.114-21.145c1.058-3.172,0-5.287-1.058-6.344c-1.057-2.115-3.171-3.172-5.286-3.172
	c0-2.114-1.057-4.229-3.172-5.286c-2.114-1.057-4.229-2.115-6.344-1.057c-45.462,9.516-52.863,59.207-58.149,96.211v2.115
	c-10.572,66.607-35.947,103.612-77.181,108.898c-15.858,2.114-31.718,1.058-47.577,0c-8.458,0-16.916-1.058-25.374-1.058h-3.172
	c-21.146,0-43.348,0-64.494,3.172c-20.088,3.172-33.833,12.688-40.176,27.489c-6.343,13.744-5.286,28.546-4.229,43.348
	c0,6.344,1.058,12.688,0,17.974c0,3.172,1.058,5.286,4.229,7.401c3.172,1.057,6.344,1.057,8.458-1.058
	c6.343-5.286,11.63-11.63,16.916-19.03c-1.057,63.436,4.229,127.929,45.463,178.678c2.114,2.114,4.229,3.172,7.401,2.114
	c3.172-1.057,5.286-3.171,6.343-5.286c2.115-7.4,3.172-13.744,5.287-22.202c5.286-24.317,10.573-49.691,23.26-69.78
	c17.974-29.604,58.149-22.202,89.868-15.858l4.229,1.057c3.172,21.146,2.115,43.349,1.058,65.551
	c-1.058,13.745-1.058,27.489-1.058,40.177c0,3.172,2.115,6.343,5.287,7.4c1.057,0,1.057,0,2.114,0c2.114,0,5.286-1.057,6.344-3.172
	c17.974-25.374,41.233-63.436,40.176-105.727c10.573-6.344,19.031-19.031,25.375-28.546l2.114-3.172
	c9.516-14.802,20.088-31.719,27.489-49.692c10.572-25.374,9.515-52.863,8.458-81.409l-2.115-14.802
	c-1.057-25.375-2.114-50.749,0-76.123c17.974,8.458,38.062,5.286,53.921-7.401c2.114-1.058,3.172-4.229,2.114-6.344
	C552.951,475.683,550.837,473.568,548.723,472.511z M482.114,477.797c-3.172,28.547-2.114,57.093-1.057,88.812v5.286
	c1.057,25.374,3.172,50.749-4.229,75.065c-5.286,16.917-14.802,32.775-23.26,46.521c-1.058,2.114-2.114,4.229-4.229,6.344
	c-6.344,11.63-15.858,27.488-26.432,31.718c-3.172,1.057-6.344,4.229-5.286,7.4c2.114,25.375-5.286,50.749-23.26,79.296
	c0-5.287,0-9.516,1.057-14.802c2.115-42.291,3.172-86.696-24.316-122.644c-2.115-2.114-4.229-3.172-6.344-3.172
	c-3.172,0-5.286,2.114-6.344,5.286s-1.058,5.286,1.058,8.458c7.4,8.459,11.63,19.031,15.858,30.661
	c-30.66-6.344-71.894-13.744-95.154,11.63c-20.088,22.203-27.489,54.979-32.775,84.582c0,2.114-1.057,4.229-1.057,6.343
	c-35.947-53.92-32.775-124.757-30.661-181.85c0-3.172-2.114-6.344-5.286-7.401c-1.057,0-1.057,0-2.115,0
	c-3.172,0-5.286,1.058-6.343,4.229c-5.287,9.516-10.573,17.974-17.974,25.374c-1.058-15.858-2.115-33.832,9.515-44.405
	c12.688-11.63,33.833-12.687,51.806-12.687c3.172,0,5.287,0,8.458,0c21.145-1.058,42.291,0,63.436,1.057h7.4
	c19.031,1.058,39.119,0,58.15-7.4c28.546-11.63,47.577-41.233,59.207-88.811c2.114-8.459,3.172-17.974,5.286-28.547
	c4.229-32.775,9.516-70.837,42.291-81.409c-2.115,8.458-4.229,17.974,0,26.432c4.229,8.458,8.458,9.516,13.744,10.572
	c2.114,0,3.172,1.058,5.286,2.115c3.172,1.057,3.172,6.343,4.229,11.63c0,4.229,1.057,8.458,3.172,12.687
	c3.172,5.287,7.4,9.516,13.744,12.688c-11.63,4.229-24.317,1.058-33.832-6.344c-2.115-2.114-5.287-3.172-8.459-2.114
	C484.229,472.511,482.114,474.626,482.114,477.797z"/>
</svg>
