<?xml version="1.0" encoding="utf-8"?>
<!-- Generator: Adobe Illustrator 24.1.0, SVG Export Plug-In . SVG Version: 6.00 Build 0)  -->
<svg version="1.1" xmlns="http://www.w3.org/2000/svg" xmlns:xlink="http://www.w3.org/1999/xlink" x="0px" y="0px"
	 viewBox="0 0 66.6 66.6" style="enable-background:new 0 0 66.6 66.6;" xml:space="preserve">
<style type="text/css">
	.st0{fill:none;}
	.st1{fill:#919191;}
	.st2{fill:#010101;}
	.st3{fill:url(#SVGID_1_);}
	.st4{fill:#DEDEDE;}
	.st5{fill:url(#SVGID_2_);}
	.st6{fill:url(#SVGID_3_);}
	.st7{fill:url(#SVGID_4_);}
	.st8{fill:url(#SVGID_5_);}
	.st9{fill:#3E3D40;stroke:#1D1D1B;stroke-width:0.9759;stroke-miterlimit:10;}
	.st10{fill:#333333;}
	.st11{fill:#F9FAFB;}
	.st12{fill:url(#SVGID_6_);}
	.st13{fill:url(#SVGID_7_);}
	.st14{fill:url(#SVGID_8_);}
	.st15{fill:url(#SVGID_9_);}
	.st16{fill:url(#SVGID_10_);}
	.st17{fill:url(#SVGID_11_);}
	.st18{fill:url(#SVGID_12_);}
	.st19{fill:url(#SVGID_13_);}
	.st20{fill:url(#SVGID_14_);}
	.st21{fill:url(#SVGID_15_);}
	.st22{fill:url(#SVGID_16_);}
	.st23{fill:url(#SVGID_17_);}
	.st24{fill:url(#SVGID_18_);}
	.st25{fill:url(#SVGID_19_);}
	.st26{fill:url(#SVGID_20_);}
	.st27{fill:url(#SVGID_21_);}
	.st28{fill:url(#SVGID_22_);}
	.st29{fill:url(#SVGID_23_);}
	.st30{fill:url(#SVGID_24_);}
	.st31{fill:url(#SVGID_25_);}
	.st32{fill:url(#SVGID_26_);}
	.st33{fill:url(#SVGID_27_);}
	.st34{fill:url(#SVGID_28_);}
	.st35{fill:url(#SVGID_29_);}
	.st36{fill:url(#SVGID_30_);}
	.st37{fill:url(#SVGID_31_);}
	.st38{fill:url(#SVGID_32_);}
	.st39{fill:url(#SVGID_33_);}
	.st40{fill:url(#SVGID_34_);}
	.st41{fill:url(#SVGID_35_);}
	.st42{fill:url(#SVGID_36_);}
	.st43{fill:url(#SVGID_37_);}
	.st44{fill:url(#SVGID_38_);}
	.st45{fill:url(#SVGID_39_);}
	.st46{fill:url(#SVGID_40_);}
	.st47{opacity:0.9;fill:#364372;}
	.st48{clip-path:url(#SVGID_42_);}
	.st49{fill:url(#SVGID_43_);}
	.st50{fill:url(#SVGID_44_);}
	.st51{fill:url(#SVGID_45_);}
	.st52{fill:url(#SVGID_46_);}
	.st53{fill:url(#SVGID_47_);}
	.st54{fill:url(#SVGID_48_);}
	.st55{fill:url(#SVGID_49_);}
	.st56{fill:url(#SVGID_50_);}
	.st57{fill:url(#SVGID_51_);}
	.st58{fill:url(#SVGID_52_);}
	.st59{fill:url(#SVGID_53_);}
	.st60{fill:url(#SVGID_54_);}
	.st61{fill:url(#SVGID_55_);}
	.st62{fill:url(#SVGID_56_);}
	.st63{fill:url(#SVGID_57_);}
	.st64{fill:url(#SVGID_58_);}
	.st65{fill:url(#SVGID_59_);}
	.st66{fill:url(#SVGID_60_);}
	.st67{fill:url(#SVGID_61_);}
	.st68{fill:url(#SVGID_62_);}
	.st69{fill:url(#SVGID_63_);}
	.st70{fill:url(#SVGID_64_);}
	.st71{fill:url(#SVGID_65_);}
	.st72{fill:url(#SVGID_66_);}
	.st73{fill:url(#SVGID_67_);}
	.st74{fill:url(#SVGID_68_);}
	.st75{fill:url(#SVGID_69_);}
	.st76{fill:url(#SVGID_70_);}
	.st77{fill:url(#SVGID_71_);}
	.st78{fill:url(#SVGID_72_);}
	.st79{fill:url(#SVGID_73_);}
	.st80{fill:url(#SVGID_74_);}
	.st81{fill:url(#SVGID_75_);}
	.st82{fill:url(#SVGID_76_);}
	.st83{fill:url(#SVGID_77_);}
	.st84{fill:url(#SVGID_78_);}
	.st85{fill:url(#SVGID_79_);}
	.st86{fill:url(#SVGID_80_);}
	.st87{fill:url(#SVGID_81_);}
	.st88{clip-path:url(#SVGID_83_);}
	.st89{opacity:0.9;fill:url(#SVGID_84_);}
	.st90{fill:url(#SVGID_85_);}
	.st91{fill:url(#SVGID_86_);}
	.st92{fill:url(#SVGID_87_);}
	.st93{fill:url(#SVGID_88_);}
	.st94{fill:url(#SVGID_89_);}
	.st95{fill:url(#SVGID_90_);}
	.st96{fill:url(#SVGID_91_);}
	.st97{fill:url(#SVGID_92_);}
	.st98{fill:url(#SVGID_93_);}
	.st99{fill:url(#SVGID_94_);}
	.st100{fill:url(#SVGID_95_);}
	.st101{fill:url(#SVGID_96_);}
	.st102{fill:url(#SVGID_97_);}
	.st103{fill:url(#SVGID_98_);}
	.st104{fill:url(#SVGID_99_);}
	.st105{fill:url(#SVGID_100_);}
	.st106{fill:url(#SVGID_101_);}
	.st107{fill:url(#SVGID_102_);}
	.st108{fill:url(#SVGID_103_);}
	.st109{fill:url(#SVGID_104_);}
	.st110{fill:url(#SVGID_105_);}
	.st111{fill:url(#SVGID_106_);}
	.st112{fill:url(#SVGID_107_);}
	.st113{fill:url(#SVGID_108_);}
	.st114{fill:url(#SVGID_109_);}
	.st115{fill:url(#SVGID_110_);}
	.st116{fill:url(#SVGID_111_);}
	.st117{fill:url(#SVGID_112_);}
	.st118{fill:url(#SVGID_113_);}
	.st119{fill:url(#SVGID_114_);}
	.st120{fill:url(#SVGID_115_);}
	.st121{fill:url(#SVGID_116_);}
	.st122{fill:url(#SVGID_117_);}
	.st123{fill:url(#SVGID_118_);}
	.st124{fill:url(#SVGID_119_);}
	.st125{fill:url(#SVGID_120_);}
	.st126{fill:url(#SVGID_121_);}
	.st127{fill:url(#SVGID_122_);}
	.st128{fill:url(#SVGID_123_);}
	.st129{clip-path:url(#SVGID_125_);}
	.st130{fill:url(#SVGID_126_);}
	.st131{fill:url(#SVGID_127_);}
	.st132{fill:url(#SVGID_128_);}
	.st133{clip-path:url(#SVGID_130_);}
	.st134{fill:#00599C;}
	.st135{fill:url(#SVGID_131_);}
	.st136{fill:url(#SVGID_132_);}
	.st137{fill:url(#SVGID_133_);}
	.st138{fill:url(#SVGID_134_);}
	.st139{fill:url(#SVGID_135_);}
	.st140{fill:url(#SVGID_136_);}
	.st141{fill:url(#SVGID_137_);}
	.st142{fill:#FFFFFF;}
	.st143{fill:url(#SVGID_138_);}
	.st144{fill:url(#SVGID_139_);}
	.st145{fill:url(#SVGID_140_);}
	.st146{fill:url(#SVGID_141_);}
	.st147{fill:url(#SVGID_142_);}
	.st148{fill:url(#SVGID_143_);}
	.st149{fill:url(#SVGID_144_);}
	.st150{fill:url(#SVGID_145_);}
	.st151{opacity:0.1;}
	.st152{fill:url(#SVGID_146_);}
	.st153{fill:url(#SVGID_147_);}
	.st154{fill:url(#SVGID_148_);}
	.st155{fill:url(#SVGID_149_);}
	.st156{fill:url(#SVGID_150_);}
	.st157{fill:url(#SVGID_151_);}
	.st158{fill:url(#SVGID_152_);}
	.st159{fill:url(#SVGID_153_);}
	.st160{fill:url(#SVGID_154_);}
	.st161{fill:url(#SVGID_155_);}
	.st162{fill:url(#SVGID_156_);}
	.st163{fill:url(#SVGID_157_);}
	.st164{fill:url(#SVGID_158_);}
	.st165{fill:url(#SVGID_159_);}
	.st166{fill:url(#SVGID_160_);}
	.st167{fill:url(#SVGID_161_);}
	.st168{fill:url(#SVGID_162_);}
	.st169{fill:url(#SVGID_163_);}
	.st170{fill:url(#SVGID_164_);}
	.st171{fill:url(#SVGID_165_);}
	.st172{fill:url(#SVGID_166_);}
	.st173{fill:url(#SVGID_167_);}
	.st174{fill:url(#SVGID_168_);}
	.st175{fill:url(#SVGID_169_);}
	.st176{fill:url(#SVGID_170_);}
	.st177{fill:url(#SVGID_171_);}
	.st178{fill:url(#SVGID_172_);}
	.st179{fill:url(#SVGID_173_);}
	.st180{fill:url(#SVGID_174_);}
	.st181{fill:url(#SVGID_175_);}
	.st182{fill:url(#SVGID_176_);}
	.st183{fill:url(#SVGID_177_);}
	.st184{fill:url(#SVGID_178_);}
	.st185{fill:url(#SVGID_179_);}
	.st186{fill:url(#SVGID_180_);}
	.st187{fill:url(#SVGID_181_);}
	.st188{clip-path:url(#SVGID_183_);}
	.st189{fill:url(#SVGID_184_);}
	.st190{fill:url(#SVGID_185_);}
	.st191{fill:url(#SVGID_186_);}
	.st192{fill:url(#SVGID_187_);}
	.st193{fill:url(#SVGID_188_);}
	.st194{fill:url(#SVGID_189_);}
	.st195{fill:url(#SVGID_190_);}
	.st196{fill:url(#SVGID_191_);}
	.st197{fill:url(#SVGID_192_);}
	.st198{fill:url(#SVGID_193_);}
	.st199{fill:url(#SVGID_194_);}
	.st200{fill:url(#SVGID_195_);}
	.st201{fill:url(#SVGID_196_);}
	.st202{fill:url(#SVGID_197_);}
	.st203{fill:url(#SVGID_198_);}
	.st204{fill:url(#SVGID_199_);}
	.st205{fill:url(#SVGID_200_);}
	.st206{fill:url(#SVGID_201_);}
	.st207{fill:url(#SVGID_202_);}
	.st208{fill:url(#SVGID_203_);}
	.st209{fill:url(#SVGID_204_);}
	.st210{fill:url(#SVGID_205_);}
	.st211{fill:url(#SVGID_206_);}
	.st212{opacity:0.1;fill:url(#SVGID_207_);}
	.st213{opacity:0.1;fill:url(#SVGID_208_);}
	.st214{opacity:0.1;fill:url(#SVGID_209_);}
	.st215{opacity:0.1;fill:url(#SVGID_210_);}
	.st216{opacity:0.1;fill:url(#SVGID_211_);}
	.st217{opacity:0.1;fill:url(#SVGID_212_);}
	.st218{opacity:0.1;fill:url(#SVGID_213_);}
	.st219{opacity:0.1;fill:url(#SVGID_214_);}
	.st220{opacity:0.1;fill:url(#SVGID_215_);}
	.st221{opacity:0.1;fill:url(#SVGID_216_);}
	.st222{opacity:0.1;fill:url(#SVGID_217_);}
	.st223{opacity:0.1;fill:url(#SVGID_218_);}
	.st224{opacity:0.1;fill:url(#SVGID_219_);}
	.st225{opacity:0.1;fill:url(#SVGID_220_);}
	.st226{opacity:0.1;fill:url(#SVGID_221_);}
	.st227{opacity:0.1;fill:url(#SVGID_222_);}
	.st228{opacity:0.1;fill:url(#SVGID_223_);}
	.st229{opacity:0.1;fill:url(#SVGID_224_);}
	.st230{opacity:0.1;fill:url(#SVGID_225_);}
	.st231{opacity:0.1;fill:url(#SVGID_226_);}
	.st232{opacity:0.1;fill:url(#SVGID_227_);}
	.st233{opacity:0.1;fill:url(#SVGID_228_);}
	.st234{opacity:0.1;fill:url(#SVGID_229_);}
	.st235{opacity:0.1;fill:url(#SVGID_230_);}
	.st236{opacity:0.1;fill:url(#SVGID_231_);}
	.st237{opacity:0.1;fill:url(#SVGID_232_);}
	.st238{opacity:0.1;fill:url(#SVGID_233_);}
	.st239{fill:url(#SVGID_234_);}
	.st240{clip-path:url(#SVGID_236_);}
	.st241{fill:url(#SVGID_237_);}
	.st242{fill:url(#SVGID_238_);}
	.st243{fill:url(#SVGID_239_);}
	.st244{fill:url(#SVGID_240_);}
	.st245{fill:url(#SVGID_241_);}
	.st246{fill:url(#SVGID_242_);}
	.st247{fill:url(#SVGID_243_);}
	.st248{fill:url(#SVGID_244_);}
	.st249{fill:url(#SVGID_245_);}
	.st250{fill:url(#SVGID_246_);}
	.st251{fill:url(#SVGID_247_);}
	.st252{fill:url(#SVGID_248_);}
	.st253{fill:url(#SVGID_249_);}
	.st254{fill:url(#SVGID_250_);}
	.st255{fill:url(#SVGID_251_);}
	.st256{fill:url(#SVGID_252_);}
	.st257{fill:url(#SVGID_253_);}
	.st258{fill:url(#SVGID_254_);}
	.st259{fill:url(#SVGID_255_);}
	.st260{fill:url(#SVGID_256_);}
	.st261{fill:url(#SVGID_257_);}
	.st262{fill:url(#SVGID_258_);}
	.st263{fill:url(#SVGID_259_);}
	.st264{fill:url(#SVGID_260_);}
	.st265{fill:url(#SVGID_261_);}
	.st266{fill:url(#SVGID_262_);}
	.st267{fill:url(#SVGID_263_);}
	.st268{fill:url(#SVGID_264_);}
	.st269{fill:url(#SVGID_265_);}
	.st270{fill:url(#SVGID_266_);}
	.st271{fill:url(#SVGID_267_);}
	.st272{fill:url(#SVGID_268_);}
	.st273{fill:url(#SVGID_269_);}
	.st274{opacity:0.1;fill:url(#SVGID_270_);}
	.st275{opacity:0.1;fill:url(#SVGID_271_);}
	.st276{opacity:0.1;fill:url(#SVGID_272_);}
	.st277{opacity:0.1;fill:url(#SVGID_273_);}
	.st278{opacity:0.1;fill:url(#SVGID_274_);}
	.st279{opacity:0.1;fill:url(#SVGID_275_);}
	.st280{opacity:0.1;fill:url(#SVGID_276_);}
	.st281{opacity:0.1;fill:url(#SVGID_277_);}
	.st282{opacity:0.1;fill:url(#SVGID_278_);}
	.st283{opacity:0.1;fill:url(#SVGID_279_);}
	.st284{opacity:0.1;fill:url(#SVGID_280_);}
	.st285{opacity:0.1;fill:url(#SVGID_281_);}
	.st286{opacity:0.1;fill:url(#SVGID_282_);}
	.st287{opacity:0.1;fill:url(#SVGID_283_);}
	.st288{opacity:0.1;fill:url(#SVGID_284_);}
	.st289{opacity:0.1;fill:url(#SVGID_285_);}
	.st290{opacity:0.1;fill:url(#SVGID_286_);}
	.st291{fill:url(#SVGID_287_);}
	.st292{clip-path:url(#SVGID_289_);}
	.st293{fill:url(#SVGID_290_);}
	.st294{fill:url(#SVGID_291_);}
	.st295{fill:url(#SVGID_292_);}
	.st296{fill:url(#SVGID_293_);}
	.st297{fill:url(#SVGID_294_);}
	.st298{fill:url(#SVGID_295_);}
	.st299{fill:url(#SVGID_296_);}
	.st300{fill:url(#SVGID_297_);}
	.st301{fill:url(#SVGID_298_);}
	.st302{fill:url(#SVGID_299_);}
	.st303{fill:url(#SVGID_300_);}
	.st304{fill:url(#SVGID_301_);}
	.st305{fill:url(#SVGID_302_);}
	.st306{fill:url(#SVGID_303_);}
	.st307{fill:url(#SVGID_304_);}
	.st308{fill:url(#SVGID_305_);}
	.st309{fill:url(#SVGID_306_);}
	.st310{fill:url(#SVGID_307_);}
	.st311{fill:url(#SVGID_308_);}
	.st312{fill:url(#SVGID_309_);}
	.st313{fill:url(#SVGID_310_);}
	.st314{fill:url(#SVGID_311_);}
	.st315{fill:url(#SVGID_312_);}
	.st316{fill:url(#SVGID_313_);}
	.st317{fill:url(#SVGID_314_);}
	.st318{fill:url(#SVGID_315_);}
	.st319{fill:url(#SVGID_316_);}
	.st320{fill:url(#SVGID_317_);}
	.st321{fill:url(#SVGID_318_);}
	.st322{fill:url(#SVGID_319_);}
	.st323{fill:url(#SVGID_320_);}
	.st324{fill:url(#SVGID_321_);}
	.st325{fill:url(#SVGID_322_);}
	.st326{fill:url(#SVGID_323_);}
	.st327{fill:url(#SVGID_324_);}
	.st328{fill:url(#SVGID_325_);}
	.st329{fill:url(#SVGID_326_);}
	.st330{fill:url(#SVGID_327_);}
	.st331{fill:url(#SVGID_328_);}
	.st332{fill:url(#SVGID_329_);}
	.st333{fill:url(#SVGID_330_);}
	.st334{fill:url(#SVGID_331_);}
	.st335{opacity:0.1;fill:url(#SVGID_332_);}
	.st336{opacity:0.1;fill:url(#SVGID_333_);}
	.st337{opacity:0.1;fill:url(#SVGID_334_);}
	.st338{opacity:0.1;fill:url(#SVGID_335_);}
	.st339{opacity:0.1;fill:url(#SVGID_336_);}
	.st340{opacity:0.1;fill:url(#SVGID_337_);}
	.st341{opacity:0.1;fill:url(#SVGID_338_);}
	.st342{opacity:0.1;fill:url(#SVGID_339_);}
	.st343{fill:url(#SVGID_340_);}
	.st344{clip-path:url(#SVGID_342_);}
	.st345{fill:url(#SVGID_343_);}
	.st346{fill:url(#SVGID_344_);}
	.st347{fill:url(#SVGID_345_);}
	.st348{fill:url(#SVGID_346_);}
	.st349{fill:url(#SVGID_347_);}
	.st350{fill:url(#SVGID_348_);}
	.st351{fill:url(#SVGID_349_);}
	.st352{fill:url(#SVGID_350_);}
	.st353{fill:url(#SVGID_351_);}
	.st354{fill:url(#SVGID_352_);}
	.st355{fill:url(#SVGID_353_);}
	.st356{fill:url(#SVGID_354_);}
	.st357{fill:url(#SVGID_355_);}
	.st358{fill:url(#SVGID_356_);}
	.st359{fill:url(#SVGID_357_);}
	.st360{fill:url(#SVGID_358_);}
	.st361{fill:url(#SVGID_359_);}
	.st362{fill:url(#SVGID_360_);}
	.st363{fill:url(#SVGID_361_);}
	.st364{fill:url(#SVGID_362_);}
	.st365{fill:url(#SVGID_363_);}
	.st366{fill:url(#SVGID_364_);}
	.st367{fill:url(#SVGID_365_);}
	.st368{fill:url(#SVGID_366_);}
	.st369{fill:url(#SVGID_367_);}
	.st370{fill:url(#SVGID_368_);}
	.st371{fill:url(#SVGID_369_);}
	.st372{fill:url(#SVGID_370_);}
	.st373{fill:url(#SVGID_371_);}
	.st374{fill:url(#SVGID_372_);}
	.st375{fill:url(#SVGID_373_);}
	.st376{fill:url(#SVGID_374_);}
	.st377{fill:url(#SVGID_375_);}
	.st378{fill:url(#SVGID_376_);}
	.st379{fill:url(#SVGID_377_);}
	.st380{fill:url(#SVGID_378_);}
	.st381{fill:url(#SVGID_379_);}
	.st382{fill:url(#SVGID_380_);}
	.st383{fill:url(#SVGID_381_);}
	.st384{fill:url(#SVGID_382_);}
	.st385{fill:url(#SVGID_383_);}
	.st386{fill:url(#SVGID_384_);}
	.st387{fill:url(#SVGID_385_);}
	.st388{fill:url(#SVGID_386_);}
	.st389{fill:url(#SVGID_387_);}
	.st390{fill:url(#SVGID_388_);}
	.st391{fill:url(#SVGID_389_);}
	.st392{fill:url(#SVGID_390_);}
	.st393{fill:url(#SVGID_391_);}
	.st394{fill:url(#SVGID_392_);}
	.st395{fill:url(#SVGID_393_);}
	.st396{clip-path:url(#SVGID_395_);}
	.st397{fill:url(#SVGID_396_);}
	.st398{fill:url(#SVGID_397_);}
	.st399{fill:url(#SVGID_398_);}
	.st400{fill:url(#SVGID_399_);}
	.st401{fill:url(#SVGID_400_);}
	.st402{fill:url(#SVGID_401_);}
	.st403{fill:url(#SVGID_402_);}
	.st404{opacity:0.3;fill:#FFFFFF;}
	.st405{fill:url(#SVGID_403_);}
	.st406{fill:url(#SVGID_404_);}
	.st407{fill:url(#SVGID_405_);}
	.st408{fill:url(#SVGID_406_);}
	.st409{fill:url(#SVGID_407_);}
	.st410{fill:url(#SVGID_408_);}
	.st411{fill:none;stroke:#010101;stroke-width:0.5;stroke-miterlimit:10;}
	.st412{fill:#0C1220;}
	.st413{fill:#BF2883;}
	.st414{fill:none;stroke:#FFFFFF;stroke-width:1.2692;stroke-miterlimit:10;}
	.st415{fill:none;stroke:#0C1220;stroke-width:1.485;stroke-linecap:round;stroke-miterlimit:10;}
	.st416{fill:#F7BE29;}
	.st417{fill:#EE8A3C;}
	.st418{fill:#D54D1D;}
	.st419{fill:#8C517B;}
	.st420{fill:#648599;}
	.st421{fill:none;stroke:#FFFFFF;stroke-width:1.2565;stroke-miterlimit:10;}
	.st422{fill:url(#SVGID_409_);}
	.st423{fill:url(#SVGID_410_);}
	.st424{fill:url(#SVGID_411_);}
	.st425{fill:url(#SVGID_412_);}
	.st426{fill:url(#SVGID_413_);}
	.st427{fill:url(#SVGID_414_);}
	.st428{fill:none;stroke:#FFFFFF;stroke-width:2;stroke-linecap:round;stroke-miterlimit:10;}
	.st429{opacity:0.5;fill:none;stroke:#FFFFFF;stroke-width:2;stroke-linecap:round;stroke-miterlimit:10;}
	.st430{fill:none;stroke:#FFFFFF;stroke-width:1.8967;stroke-linecap:round;stroke-miterlimit:10;}
	.st431{fill:url(#SVGID_417_);}
	.st432{fill:url(#SVGID_418_);}
	.st433{fill:url(#SVGID_419_);}
	.st434{fill:url(#SVGID_420_);}
	.st435{fill:url(#SVGID_421_);}
	.st436{fill:url(#SVGID_422_);}
	.st437{opacity:0.55;fill:#010101;}
	.st438{fill:none;stroke:#0C1220;stroke-width:0.5768;stroke-miterlimit:10;}
	.st439{fill:none;stroke:#0C1220;stroke-width:1.1535;stroke-linecap:round;stroke-miterlimit:10;}
	.st440{fill:none;stroke:#FFFFFF;stroke-width:0.9472;stroke-miterlimit:10;}
	.st441{fill:url(#SVGID_425_);}
	.st442{fill:url(#SVGID_426_);}
	.st443{fill:url(#SVGID_427_);}
	.st444{fill:url(#SVGID_428_);}
	.st445{fill:url(#SVGID_429_);}
	.st446{fill:url(#SVGID_430_);}
</style>
<g id="TABLETS">
</g>
<g id="Capa_1">
	<g>
		<circle class="st142" cx="33.3" cy="33.3" r="33"/>
		<g>
			<path id="Shape_2_" class="st412" d="M15.4,37.8c-0.4,0-0.8,0.3-0.8,0.8v6.8c0,1.2,1,2.3,2.3,2.3h3v5.3c0,1.7,1.3,3,3,3h21
				c1.7,0,3-1.3,3-3v-5.3h3c1.2,0,2.3-1,2.3-2.3v-6.8c0-0.4-0.3-0.8-0.8-0.8c-0.4,0-0.8,0.3-0.8,0.8v6.8c0,0.4-0.3,0.8-0.8,0.8h-3
				v-27h3c0.4,0,0.8,0.3,0.8,0.8v6.8c0,0.4,0.3,0.8,0.8,0.8c0.4,0,0.8-0.3,0.8-0.8v-6.8c0-1.2-1-2.3-2.3-2.3h-3v-3.8
				c0-1.7-1.3-3-3-3h-21c-1.7,0-3,1.3-3,3v3.8h-3c-1.2,0-2.3,1-2.3,2.3v6.8c0,0.4,0.3,0.8,0.8,0.8c0.4,0,0.8-0.3,0.8-0.8v-6.8
				c0-0.4,0.3-0.8,0.8-0.8h3v27h-3c-0.4,0-0.8-0.3-0.8-0.8v-6.8C16.2,38.1,15.8,37.8,15.4,37.8z M39.2,12.3l-1,1
				c-0.3,0.3-0.7,0.5-1.1,0.5h-7.4c-0.4,0-0.8-0.2-1.1-0.5l-1-1H39.2z M21.4,47.6h2.3c0.4,0,0.8-0.3,0.8-0.8c0-0.4-0.3-0.8-0.8-0.8
				h-2.3v-27h2.3c0.4,0,0.8-0.3,0.8-0.8c0-0.4-0.3-0.8-0.8-0.8h-2.3v-3.8c0-0.8,0.7-1.5,1.5-1.5h2.7l1.9,2.1
				c0.6,0.6,1.4,0.9,2.2,0.9h7.4c0.8,0,1.6-0.3,2.2-0.9l1.9-2.1h2.7c0.8,0,1.5,0.7,1.5,1.5v3.8h-2.3c-0.4,0-0.8,0.3-0.8,0.8
				c0,0.4,0.3,0.8,0.8,0.8h2.3v27h-2.3c-0.4,0-0.8,0.3-0.8,0.8c0,0.4,0.3,0.8,0.8,0.8h2.3v1.5c0,0.8-0.7,1.5-1.5,1.5h-21
				c-0.8,0-1.5-0.7-1.5-1.5V47.6z M21.4,51.6c0.5,0.3,1,0.4,1.5,0.4h21c0.5,0,1-0.1,1.5-0.4v1.2c0,0.8-0.7,1.5-1.5,1.5h-21
				c-0.8,0-1.5-0.7-1.5-1.5V51.6z"/>
			<path class="st412" d="M41.6,41.9C41.6,41.9,41.6,41.9,41.6,41.9l-16.6,0c-0.3,0-0.5-0.2-0.7-0.4c-0.2-0.2-0.2-0.5-0.2-0.8
				L27.2,23c0.1-0.5,0.5-0.9,1-0.9c0,0,0,0,0,0h10.3c0,0,0,0,0,0c0.5,0,0.9,0.4,1,0.9v0l3.1,17.9C42.7,41.5,42.2,41.9,41.6,41.9z
				 M28.4,23.4l-3,17.3l6.9,0v-2.4c0-0.6,0.5-1.1,1.1-1.1c0.6,0,1.1,0.5,1.1,1.1v2.4h6.9l-3-17.3h-3.9v1.5c0,0.6-0.5,1.1-1.1,1.1
				c-0.6,0-1.1-0.5-1.1-1.1v-1.5H28.4z M41.6,40.7L41.6,40.7C41.6,40.7,41.6,40.7,41.6,40.7z M28.3,23.4
				C28.3,23.4,28.3,23.4,28.3,23.4C28.3,23.4,28.3,23.4,28.3,23.4L28.3,23.4z M38.5,23.4C38.6,23.4,38.6,23.4,38.5,23.4L38.5,23.4z"
				/>
			<path class="st412" d="M33.4,36.3c-0.6,0-1.1-0.5-1.1-1.1v-2.6c0-0.6,0.5-1.1,1.1-1.1c0.6,0,1.1,0.5,1.1,1.1v2.6
				C34.5,35.8,34,36.3,33.4,36.3z"/>
			<path class="st412" d="M33.4,30.7c-0.6,0-1.1-0.5-1.1-1.1v-1.7c0-0.6,0.5-1.1,1.1-1.1c0.6,0,1.1,0.5,1.1,1.1v1.7
				C34.5,30.2,34,30.7,33.4,30.7z"/>
		</g>
	</g>
</g>
</svg>
